<svg height="496pt" viewBox="0 0 496 496" width="496pt" xmlns="http://www.w3.org/2000/svg"><path d="m240 176c0 61.761719 50.238281 112 112 112s112-50.238281 112-112-50.238281-112-112-112-112 50.238281-112 112zm112 96c-28.335938 0-53.761719-12.414062-71.351562-32h142.703124c-17.589843 19.585938-43.015624 32-71.351562 32zm-11.976562-99.351562c-7.527344-4.382813-12.023438-12.105469-12.023438-20.648438v-16c0-6.703125 2.839844-13.160156 7.792969-17.695312 5.007812-4.601563 11.511719-6.808594 18.382812-6.207032 12.230469 1.0625 21.824219 12.285156 21.824219 25.566406v14.335938c0 8.542969-4.496094 16.265625-12.023438 20.648438l-3.976562 2.3125v23.070312l38.71875 11.066406c7.503906 2.140625 13.335938 7.824219 15.882812 14.902344h-125.203124c2.546874-7.078125 8.378906-12.761719 15.882812-14.902344l38.71875-11.066406v-23.070312zm107.976562 3.351562c0 19.71875-5.992188 38.054688-16.222656 53.320312-1.144532-16.558593-12.53125-31-28.65625-35.601562l-27.121094-7.75v-2.128906c9.96875-7.511719 16-19.328125 16-31.832032v-14.335937c0-21.503906-16.007812-39.726563-36.449219-41.503906-11.207031-1-22.335937 2.800781-30.574219 10.351562-8.25 7.550781-12.976562 18.304688-12.976562 29.480469v16c0 12.503906 6.03125 24.328125 16 31.832031v2.128907l-27.121094 7.75c-16.125 4.609374-27.511718 19.042968-28.65625 35.601562-10.230468-15.257812-16.222656-33.59375-16.222656-53.3125 0-52.9375 43.0625-96 96-96s96 43.0625 96 96zm0 0"/><path d="m496 176c0-62.550781-40.160156-115.769531-96-135.601562v-40.398438h-400v448h312v8c0 22.054688 17.945312 40 40 40s40-17.945312 40-40v-120h-16v-18.167969c67.992188-11.480469 120-70.625 120-141.832031zm-16 0c0 70.574219-57.425781 128-128 128s-128-57.425781-128-128 57.425781-128 128-128 128 57.425781 128 128zm-104 280c0 13.230469-10.769531 24-24 24s-24-10.769531-24-24v-24h-312v-416h368v19.710938c-10.3125-2.351563-20.992188-3.710938-32-3.710938-79.398438 0-144 64.601562-144 144 0 71.207031 52.007812 130.351562 120 141.832031v18.167969h-16v80h16v-64h48zm-16-120h-16v-16.40625c2.664062.148438 5.296875.40625 8 .40625s5.335938-.257812 8-.40625zm0 0"/><path d="m120 240c-48.519531 0-88 39.480469-88 88s39.480469 88 88 88 88-39.480469 88-88-39.480469-88-88-88zm71.527344 80h-63.527344v-63.527344c33.3125 3.703125 59.824219 30.214844 63.527344 63.527344zm-143.527344 8c0-36.992188 28.054688-67.527344 64-71.527344v143.054688c-35.945312-4-64-34.535156-64-71.527344zm80 71.527344v-63.527344h63.527344c-3.703125 33.3125-30.214844 59.824219-63.527344 63.527344zm0 0"/><path d="m32 32h16v16h-16zm0 0"/><path d="m64 32h128v16h-128zm0 0"/><path d="m32 64h160v16h-160zm0 0"/><path d="m32 96h160v16h-160zm0 0"/><path d="m32 128h160v16h-160zm0 0"/><path d="m32 160h160v16h-160zm0 0"/><path d="m32 192h128v16h-128zm0 0"/><path d="m176 192h16v16h-16zm0 0"/><path d="m224 400h72v16h-72zm0 0"/><path d="m224 368h72v16h-72zm0 0"/><path d="m224 336h72v16h-72zm0 0"/></svg>